<?xml version="1.0" encoding="UTF-8" standalone="no"?>
<!DOCTYPE svg PUBLIC "-//W3C//DTD SVG 1.1//EN" "http://www.w3.org/Graphics/SVG/1.1/DTD/svg11.dtd">
<svg width="100%" height="100%" viewBox="0 0 2532 579" version="1.1" xmlns="http://www.w3.org/2000/svg" xmlns:xlink="http://www.w3.org/1999/xlink" xml:space="preserve" xmlns:serif="http://www.serif.com/" style="fill-rule:evenodd;clip-rule:evenodd;stroke-linejoin:round;stroke-miterlimit:2;">
    <g transform="matrix(1,0,0,0.494751,0,0)">
        <rect x="0" y="0" width="2532" height="1170" style="fill:none;"/>
    </g>
    <g transform="matrix(1,0,0,1,-18,-18)">
        <g transform="matrix(300,0,0,300,2156.4,313.924271)">
            <path d="M0.584,-0.088L0.185,-0.088L0.185,-0.76L0.09,-0.76L0.09,-0L0.584,-0L0.584,-0.088ZM0.684,-0.3L0.466,-0.3L0.466,-0.76L0.371,-0.76L0.371,-0.212L0.684,-0.212L0.684,-0.3Z" style="fill:rgb(56,84,192);fill-rule:nonzero;"/>
        </g>
        <g transform="matrix(300,0,0,300,2156.4,313.924271)">
        </g>
        <g transform="matrix(300,0,0,300,2265.15,313.924271)">
        </g>
        <text x="18px" y="313.924px" style="font-family:'Catallina-Regular', 'Catallina';font-size:300px;fill:rgb(56,84,192);">P<tspan x="190.8px 393.6px 602.7px 726px 988.5px 1093.5px 1181.4px 1372.2px 1587.6px 1796.7px 1991.4px 2373.9px " y="313.924px 313.924px 313.924px 313.924px 313.924px 313.924px 313.924px 313.924px 313.924px 313.924px 313.924px 313.924px ">AolO iAcoVei</tspan></text>
        <g transform="matrix(1.1,0,0,1,-1.8,0)">
            <g transform="matrix(153,0,0,153,1274.283,528.934271)">
            </g>
            <text x="18px" y="528.934px" style="font-family:'TenorSans', 'Tenor Sans';font-size:153px;fill:rgb(255,164,122);">(<tspan x="99.702px 218.736px 349.092px 477.306px 590.22px 671.922px 821.862px 916.11px 999.036px 1092.213px 1215.837px " y="528.934px 528.934px 528.934px 528.934px 528.934px 528.934px 528.934px 528.934px 528.934px 528.934px 528.934px ">copy)writer</tspan></text>
        </g>
    </g>
</svg>
